<?xml version="1.0" encoding="utf-8"?><!-- Generator: Adobe Illustrator 17.0.0, SVG Export Plug-In . SVG Version: 6.00 Build 0)  --><!DOCTYPE svg PUBLIC "-//W3C//DTD SVG 1.1//EN" "http://www.w3.org/Graphics/SVG/1.1/DTD/svg11.dtd"><svg xmlns="http://www.w3.org/2000/svg" xmlns:xlink="http://www.w3.org/1999/xlink" viewBox="0 0 50 50" width="50px" height="50px"><g><path fill="none" stroke="#000000" stroke-width="1.9891" stroke-linecap="round" stroke-miterlimit="10" d="M26,2L4,11v24l23,13l19-13V11L26,2L26,2z"/></g><line fill="none" stroke="#000000" stroke-width="1.9891" stroke-linecap="round" stroke-miterlimit="10" x1="4" y1="11" x2="26.922" y2="21.266"/><g><path fill="none" stroke="#000000" stroke-width="2" stroke-linecap="round" stroke-miterlimit="10" d="M46,11L27,21.263V48"/></g><g><g><path d="M14.906,23.04l4.2,13.503l-1.113-0.598l-1.31-4.233l-4.741-2.462l-1.216,2.789l-1.006-0.541l4.075-8.989L14.906,23.04z M16.341,30.613l-2.035-6.793l-2.064,4.684L16.341,30.613z"/></g></g><g><g><path d="M37.64,21.998c0.355-0.198,0.694-0.341,1.019-0.432c0.323-0.09,0.606-0.094,0.85-0.013c0.243,0.081,0.437,0.257,0.583,0.528c0.146,0.272,0.218,0.671,0.218,1.198c0,0.296-0.034,0.603-0.103,0.922c-0.069,0.32-0.167,0.631-0.293,0.932c-0.127,0.302-0.277,0.583-0.451,0.844c-0.174,0.262-0.37,0.489-0.587,0.681v0.032c0.535-0.22,0.959-0.172,1.274,0.143c0.313,0.314,0.47,0.839,0.47,1.576c0,0.179-0.011,0.389-0.034,0.629c-0.023,0.241-0.068,0.5-0.137,0.779c-0.069,0.28-0.168,0.577-0.298,0.889c-0.13,0.313-0.305,0.626-0.524,0.938c-0.22,0.312-0.492,0.626-0.814,0.939c-0.324,0.315-0.714,0.616-1.171,0.903l-3.66,2.299V24.039L37.64,21.998z M37.64,27.035c0.323-0.19,0.602-0.405,0.837-0.645c0.234-0.239,0.429-0.492,0.584-0.758c0.155-0.266,0.271-0.538,0.348-0.817c0.077-0.278,0.116-0.55,0.116-0.815c0-1.421-0.624-1.78-1.886-1.069l-2.822,1.589v4.175L37.64,27.035z M37.64,32.554c0.299-0.186,0.583-0.397,0.849-0.632c0.265-0.234,0.499-0.504,0.701-0.81c0.201-0.305,0.36-0.644,0.475-1.018c0.116-0.373,0.173-0.786,0.173-1.241c0-0.73-0.187-1.166-0.561-1.308c-0.377-0.142-0.921-0.002-1.637,0.423l-2.822,1.677v4.665L37.64,32.554z"/></g></g><g><path d="M31.664,10.62c0.09-0.239,0.094-0.475,0.01-0.707c-0.083-0.233-0.24-0.456-0.47-0.67c-0.23-0.214-0.527-0.41-0.889-0.588c-0.662-0.326-1.349-0.545-2.061-0.657c-0.714-0.113-1.418-0.143-2.111-0.092c-0.695,0.052-1.36,0.169-1.996,0.352c-0.637,0.183-1.213,0.409-1.729,0.677c-0.507,0.264-0.934,0.56-1.279,0.888c-0.346,0.328-0.559,0.668-0.637,1.019c-0.079,0.351,0.008,0.704,0.259,1.059c0.25,0.354,0.713,0.691,1.386,1.012c0.473,0.225,0.976,0.387,1.51,0.485c0.532,0.098,1.069,0.142,1.609,0.133c0.539-0.01,1.072-0.068,1.599-0.175c0.526-0.106,1.019-0.256,1.479-0.45l0.947,0.456c-0.633,0.265-1.288,0.464-1.968,0.595c-0.681,0.131-1.358,0.196-2.033,0.193c-0.676-0.003-1.343-0.075-2.001-0.215c-0.66-0.141-1.287-0.352-1.885-0.636c-0.798-0.379-1.368-0.782-1.708-1.209c-0.341-0.428-0.49-0.854-0.446-1.278c0.044-0.425,0.258-0.838,0.644-1.24c0.386-0.402,0.903-0.772,1.551-1.109c0.648-0.337,1.365-0.609,2.152-0.817c0.785-0.207,1.602-0.33,2.448-0.369c0.845-0.039,1.699,0.019,2.561,0.175c0.859,0.155,1.68,0.426,2.462,0.811c0.473,0.233,0.87,0.494,1.19,0.783c0.319,0.288,0.533,0.588,0.644,0.9c0.11,0.311,0.102,0.623-0.023,0.936c-0.126,0.312-0.397,0.61-0.813,0.892l-0.941-0.459C31.393,11.09,31.573,10.858,31.664,10.62z"/></g></svg>