<svg xmlns="http://www.w3.org/2000/svg"  viewBox="0 0 64 64" width="64px" height="64px"><path d="M 19.650391 0.005859375 A 12 12 0 0 0 8 12 L 8 13.556641 A 3.987 3.987 0 0 0 10 21 L 11 21 A 9.008 9.008 0 0 0 17 29.474609 L 17 31 A 1 1 0 0 1 16 32 L 11 32 A 9.022 9.022 0 0 0 3.5390625 36 L 3.4394531 36 A 3 3 0 0 0 0.5 39.589844 L 3.6992188 55.589844 A 2.987 2.987 0 0 0 3.8203125 56 L 1 56 A 1 1 0 0 0 0 57 L 0 63 A 1 1 0 0 0 1 64 L 63 64 A 1 1 0 0 0 64 63 L 64 57 A 0.972 0.972 0 0 0 63.810547 56.447266 A 2.493 2.493 0 0 0 62 53.050781 L 62 50.951172 A 2.5 2.5 0 0 0 61.5 46 L 57.191406 46 A 7.588 7.588 0 0 0 59 41 C 59 37.141 56.309 34 53 34 A 5.144 5.144 0 0 0 52 34.107422 L 52 31 A 1 1 0 0 0 50 31 L 50 33.025391 A 4.948 4.948 0 0 0 47 32 L 45 32 A 1 1 0 0 0 44 33 A 5.006 5.006 0 0 0 49 38 L 51 38 A 1 1 0 0 0 52 37 L 52 36.181641 A 3.187 3.187 0 0 1 53 36 C 55.206 36 57 38.243 57 41 C 57 43.757 55.206 46 53 46 A 3.278 3.278 0 0 1 51.464844 45.611328 A 0.994 0.994 0 0 0 50.535156 45.611328 A 3.278 3.278 0 0 1 49 46 C 46.794 46 45 43.757 45 41 A 6.049 6.049 0 0 1 45.244141 39.283203 A 1 1 0 0 0 43.326172 38.716797 A 8.021 8.021 0 0 0 43 41 A 7.588 7.588 0 0 0 44.808594 46 L 44.214844 46 A 6.163 6.163 0 0 0 38.027344 51.414062 A 6.03 6.03 0 0 0 39.53125 56 L 36.181641 56 A 2.987 2.987 0 0 0 36.302734 55.589844 L 39.501953 39.589844 A 3 3 0 0 0 36.560547 36 L 36.460938 36 A 9.022 9.022 0 0 0 29 32 L 24 32 A 1 1 0 0 1 23 31 L 23 29.474609 A 9.008 9.008 0 0 0 29 21 L 30 21 A 3.987 3.987 0 0 0 32 13.556641 L 32 12 A 12 12 0 0 0 19.650391 0.005859375 z M 20.292969 2.0039062 A 10 10 0 0 1 30 12 L 30 13 L 29 13 L 29 12 A 9 9 0 0 0 11 12 L 11 13 L 10 13 L 10 12 A 10 10 0 0 1 20.292969 2.0039062 z M 20.205078 5.0039062 A 7 7 0 0 1 27 12 L 27 13 L 25.828125 13 A 0.983 0.983 0 0 1 25.414062 12.910156 A 1.0001625 1.0001625 0 0 0 24.585938 14.730469 A 2.983 2.983 0 0 0 25.828125 15 L 27 15 L 27 21 A 7 7 0 0 1 13 21 L 13 15 L 20.171875 15 A 2.978 2.978 0 0 0 22.292969 14.121094 L 23.707031 12.707031 A 1 1 0 0 0 22.292969 11.292969 L 20.878906 12.707031 A 1 1 0 0 1 20.171875 13 L 13 13 L 13 12 A 7 7 0 0 1 20.205078 5.0039062 z M 10 15 L 11 15 L 11 19 L 10 19 A 2 2 0 0 1 10 15 z M 29 15 L 30 15 A 2 2 0 0 1 30 19 L 29 19 L 29 15 z M 16 16 A 1 1 0 0 0 15 17 L 15 18 A 1 1 0 0 0 17 18 L 17 17 A 1 1 0 0 0 16 16 z M 23.970703 16 A 1 1 0 0 0 23 17 L 23 18 A 1 1 0 0 0 24 19 A 1 1 0 0 0 25 18 L 25 17 A 1 1 0 0 0 23.970703 16 z M 19 29.941406 A 8.5 8.5 0 0 0 21 29.941406 L 21 31 A 3 3 0 0 0 23.484375 33.947266 A 3.984 3.984 0 0 1 16.515625 33.947266 A 3 3 0 0 0 19 31 L 19 29.941406 z M 11 34 L 14.341797 34 A 5.942 5.942 0 0 0 15.552734 36 L 6.109375 36 A 7.024 7.024 0 0 1 11 34 z M 25.658203 34 L 29 34 A 7.024 7.024 0 0 1 33.890625 36 L 24.447266 36 A 5.942 5.942 0 0 0 25.658203 34 z M 46.171875 34 L 47 34 A 3.006 3.006 0 0 1 49.828125 36 L 49 36 A 3.006 3.006 0 0 1 46.171875 34 z M 3.4394531 38 L 36.560547 38 A 1 1 0 0 1 37.541016 39.199219 L 34.341797 55.199219 A 1 1 0 0 1 33.359375 56 L 6.640625 56 A 1 1 0 0 1 5.6582031 55.199219 L 2.4589844 39.199219 A 1 1 0 0 1 3.4394531 38 z M 20 42 A 5 5 0 1 0 25 47 A 5.006 5.006 0 0 0 20 42 z M 19.875 44.001953 A 3 3 0 0 1 23 47 A 3 3 0 0 1 20 50 A 3 3 0 0 1 19.875 44.001953 z M 44.21875 48 L 61.5 48 A 0.5 0.5 0 0 1 61.5 49 L 57 49 A 1 1 0 0 0 57 51 L 60 51 L 60 53 L 44 53 A 1 1 0 0 1 43.013672 51.824219 A 1.085 1.085 0 0 1 44.107422 51 L 53 51 A 1 1 0 0 0 53 49 L 44.107422 49 A 3.082 3.082 0 0 0 41.041016 51.5 A 3 3 0 0 0 44 55 L 61.5 55 A 0.5 0.5 0 0 1 61.5 56 L 44 56 A 4.005 4.005 0 0 1 41.039062 54.689453 A 3.968 3.968 0 0 1 40.019531 51.599609 A 4.149 4.149 0 0 1 44.21875 48 z M 2 58 L 62 58 L 62 62 L 2 62 L 2 58 z"/></svg>