<svg xmlns="http://www.w3.org/2000/svg"  viewBox="0 0 100 100" width="100px" height="100px"><path d="M 50.013672 11 A 1.0001 1.0001 0 0 0 49.691406 11.048828 L 15.691406 22.048828 A 1.0001 1.0001 0 0 0 15 23 L 15 30 A 1.0001 1.0001 0 0 0 16.308594 30.951172 L 50 20.050781 L 83.691406 30.951172 A 1.0001 1.0001 0 0 0 85 30 L 85 23 A 1.0001 1.0001 0 0 0 84.308594 22.048828 L 50.308594 11.048828 A 1.0001 1.0001 0 0 0 50.013672 11 z M 50 13.050781 L 83 23.726562 L 83 28.625 L 50.308594 18.048828 A 1.0001 1.0001 0 0 0 49.691406 18.048828 L 17 28.625 L 17 23.726562 L 50 13.050781 z M 24.5 36 A 0.50005 0.50005 0 0 0 24.042969 36.296875 L 21.953125 41 L 20 41 C 17.802666 41 16 42.802666 16 45 L 16 82 C 16 84.197334 17.802666 86 20 86 L 44.423828 86 C 45.316346 87.657069 47.256347 89 50 89 C 52.743653 89 54.683654 87.657069 55.576172 86 L 81 86 C 83.197334 86 85 84.197334 85 82 L 85 45 C 85 42.802666 83.197334 41 81 41 L 79.046875 41 L 76.957031 36.296875 A 0.50005 0.50005 0 0 0 76.5 36 C 66.95614 36 60.406446 37.256037 56.230469 38.521484 C 52.475198 39.659445 50.838672 40.705311 50.5 40.929688 C 50.161328 40.705311 48.524802 39.659445 44.769531 38.521484 C 40.593554 37.256037 34.04386 36 24.5 36 z M 25 37.023438 C 34.150763 37.071367 40.487769 38.268606 44.480469 39.478516 C 47.89426 40.512998 49.533818 41.474727 50 41.773438 L 50 70.5 A 0.50005 0.50005 0 1 0 51 70.5 L 51 41.773438 C 51.466182 41.474727 53.10574 40.512998 56.519531 39.478516 C 60.512231 38.268606 66.849237 37.071363 76 37.023438 L 76 76.009766 C 65.153285 76.062132 58.2342 77.736342 54.330078 79.154297 A 0.50005 0.50005 0 1 0 54.669922 80.09375 C 58.487728 78.707145 65.370195 77.035848 76.265625 77.009766 L 79.458984 81 L 53.580078 81 A 0.50005 0.50005 0 0 0 53.417969 81 L 50.642578 81 C 50.291552 80.768065 48.507896 79.654323 44.769531 78.521484 C 40.669437 77.279032 34.263799 76.052226 25 76.007812 L 25 37.023438 z M 24 38.855469 L 24 76.324219 L 21 80.074219 L 21 45.605469 L 24 38.855469 z M 77 38.855469 L 80 45.605469 L 80 80.074219 L 77 76.324219 L 77 38.855469 z M 29.474609 41 A 0.50005 0.50005 0 0 0 29.474609 42 C 32.498923 42.15211 35.125286 42.445316 37.421875 42.810547 A 0.50027827 0.50027827 0 0 0 37.578125 41.822266 C 35.246714 41.451497 32.585077 41.15389 29.525391 41 A 0.50005 0.50005 0 0 0 29.474609 41 z M 71.474609 41 C 63.166028 41.41734 57.65674 42.860596 54.324219 44.105469 A 0.50062513 0.50062513 0 1 0 54.675781 45.042969 C 57.90726 43.835841 63.309972 42.41266 71.525391 42 A 0.50064429 0.50064429 0 1 0 71.474609 41 z M 39.496094 42.164062 A 0.50005 0.50005 0 0 0 39.404297 43.15625 C 40.481055 43.365647 41.477287 43.588253 42.375 43.818359 A 0.50024408 0.50024408 0 0 0 42.625 42.849609 C 41.704713 42.613716 40.688945 42.388384 39.595703 42.175781 A 0.50005 0.50005 0 0 0 39.496094 42.164062 z M 20 43 L 21.064453 43 L 20.042969 45.296875 A 0.50005 0.50005 0 0 0 20 45.5 L 20 81.5 A 0.50005 0.50005 0 0 0 20 81.505859 A 0.50005 0.50005 0 0 0 20 81.523438 A 0.50005 0.50005 0 0 0 20.001953 81.550781 A 0.50005 0.50005 0 0 0 20.003906 81.5625 A 0.50005 0.50005 0 0 0 20.009766 81.601562 A 0.50005 0.50005 0 0 0 20.017578 81.632812 A 0.50005 0.50005 0 0 0 20.023438 81.654297 A 0.50005 0.50005 0 0 0 20.03125 81.671875 A 0.50005 0.50005 0 0 0 20.039062 81.695312 A 0.50005 0.50005 0 0 0 20.044922 81.707031 A 0.50005 0.50005 0 0 0 20.064453 81.748047 A 0.50005 0.50005 0 0 0 20.066406 81.75 A 0.50005 0.50005 0 0 0 20.087891 81.783203 A 0.50005 0.50005 0 0 0 20.09375 81.792969 A 0.50005 0.50005 0 0 0 20.117188 81.822266 A 0.50005 0.50005 0 0 0 20.125 81.832031 A 0.50005 0.50005 0 0 0 20.152344 81.859375 A 0.50005 0.50005 0 0 0 20.167969 81.875 A 0.50005 0.50005 0 0 0 20.230469 81.919922 A 0.50005 0.50005 0 0 0 20.269531 81.943359 A 0.50005 0.50005 0 0 0 20.279297 81.947266 A 0.50005 0.50005 0 0 0 20.291016 81.953125 A 0.50005 0.50005 0 0 0 20.330078 81.970703 A 0.50005 0.50005 0 0 0 20.333984 81.972656 A 0.50005 0.50005 0 0 0 20.416016 81.992188 A 0.50005 0.50005 0 0 0 20.427734 81.994141 A 0.50005 0.50005 0 0 0 20.464844 81.998047 A 0.50005 0.50005 0 0 0 20.5 82 L 46.058594 82 C 46.340305 83.721995 48.024147 85 50 85 C 51.975853 85 53.659695 83.721995 53.941406 82 L 80.5 82 A 0.50024408 0.50024408 0 0 0 80.501953 82 A 0.50005 0.50005 0 0 0 80.552734 81.998047 A 0.50005 0.50005 0 0 0 80.601562 81.990234 A 0.50005 0.50005 0 0 0 80.650391 81.976562 A 0.50024408 0.50024408 0 0 0 80.679688 81.966797 A 0.50005 0.50005 0 0 0 80.697266 81.960938 A 0.50005 0.50005 0 0 0 80.71875 81.949219 A 0.50024408 0.50024408 0 0 0 80.742188 81.9375 A 0.50024408 0.50024408 0 0 0 80.822266 81.882812 A 0.50005 0.50005 0 0 0 80.824219 81.880859 A 0.50024408 0.50024408 0 0 0 80.892578 81.810547 A 0.50005 0.50005 0 0 0 80.892578 81.808594 A 0.50024408 0.50024408 0 0 0 80.945312 81.726562 A 0.50005 0.50005 0 0 0 80.947266 81.724609 A 0.50024408 0.50024408 0 0 0 80.966797 81.681641 A 0.50005 0.50005 0 0 0 80.966797 81.679688 A 0.50024408 0.50024408 0 0 0 81 81.5 L 81 45.5 A 0.50005 0.50005 0 0 0 80.957031 45.296875 L 79.935547 43 L 81 43 C 82.116666 43 83 43.883334 83 45 L 83 82 C 83 83.116666 82.116666 84 81 84 L 55 84 A 1.0001 1.0001 0 0 0 54.050781 84.683594 C 53.707504 85.713426 52.398812 87 50 87 C 47.601188 87 46.292496 85.713426 45.949219 84.683594 A 1.0001 1.0001 0 0 0 45 84 L 20 84 C 18.883334 84 18 83.116666 18 82 L 18 45 C 18 43.883334 18.883334 43 20 43 z M 44.5 43.396484 A 0.50005 0.50005 0 0 0 44.353516 44.376953 C 44.697516 44.482953 45.037703 44.586803 45.339844 44.689453 A 0.50005 0.50005 0 1 0 45.660156 43.744141 C 45.338297 43.634791 44.990484 43.527875 44.646484 43.421875 A 0.50005 0.50005 0 0 0 44.5 43.396484 z M 29.474609 46 A 0.50005 0.50005 0 0 0 29.474609 47 C 36.900458 47.372883 42.032779 48.572942 45.339844 49.691406 A 0.50005 0.50005 0 1 0 45.660156 48.744141 C 42.261221 47.594605 37.035542 46.377117 29.525391 46 A 0.50005 0.50005 0 0 0 29.474609 46 z M 71.474609 46 C 70.049065 46.07143 68.713832 46.175018 67.451172 46.300781 A 0.50043499 0.50043499 0 0 0 67.548828 47.296875 C 68.796164 47.172638 70.116935 47.070572 71.525391 47 A 0.50064429 0.50064429 0 1 0 71.474609 46 z M 65.521484 46.523438 A 0.50005 0.50005 0 0 0 65.4375 46.529297 C 64.367137 46.666239 63.359251 46.819886 62.414062 46.986328 A 0.50005 0.50005 0 1 0 62.585938 47.970703 C 63.51475 47.807145 64.506863 47.656542 65.5625 47.521484 A 0.50005 0.50005 0 0 0 65.521484 46.523438 z M 59.484375 47.585938 A 0.50005 0.50005 0 0 0 59.470703 47.587891 A 0.50005 0.50005 0 0 0 59.386719 47.601562 C 57.330674 48.08225 55.652162 48.608633 54.324219 49.105469 A 0.50062513 0.50062513 0 1 0 54.675781 50.042969 C 55.961838 49.561804 57.597326 49.047486 59.613281 48.576172 A 0.50005 0.50005 0 0 0 59.484375 47.585938 z M 29.474609 51 A 0.50005 0.50005 0 0 0 29.474609 52 C 31.26408 52.09047 32.913247 52.229461 34.443359 52.402344 A 0.5002872 0.5002872 0 0 0 34.556641 51.408203 C 33.006753 51.233086 31.33592 51.091532 29.525391 51 A 0.50005 0.50005 0 0 0 29.474609 51 z M 71.474609 51 C 63.166028 51.41734 57.65674 52.860596 54.324219 54.105469 A 0.50062513 0.50062513 0 1 0 54.675781 55.042969 C 57.90726 53.835841 63.309972 52.41266 71.525391 52 A 0.50064429 0.50064429 0 1 0 71.474609 51 z M 37.478516 51.814453 A 0.50005 0.50005 0 0 0 37.421875 52.810547 C 40.761806 53.341403 43.381537 54.02911 45.339844 54.691406 A 0.50005 0.50005 0 1 0 45.660156 53.744141 C 43.644463 53.062437 40.970194 52.361409 37.578125 51.822266 A 0.50005 0.50005 0 0 0 37.478516 51.814453 z M 29.474609 56 A 0.50005 0.50005 0 0 0 29.474609 57 C 36.900458 57.372883 42.032779 58.572942 45.339844 59.691406 A 0.50005 0.50005 0 1 0 45.660156 58.744141 C 42.261221 57.594605 37.035542 56.377117 29.525391 56 A 0.50005 0.50005 0 0 0 29.474609 56 z M 71.474609 56 C 66.999512 56.225263 63.344706 56.748147 60.396484 57.376953 A 0.50008894 0.50008894 0 1 0 60.603516 58.355469 C 63.497294 57.738275 67.100488 57.222737 71.525391 57 A 0.50064429 0.50064429 0 1 0 71.474609 56 z M 56.484375 58.394531 A 0.50005 0.50005 0 0 0 56.353516 58.417969 C 55.60538 58.648787 54.929024 58.881175 54.326172 59.105469 A 0.50005 0.50005 0 1 0 54.673828 60.042969 C 55.258976 59.825262 55.91662 59.598228 56.646484 59.373047 A 0.50005 0.50005 0 0 0 56.484375 58.394531 z M 29.474609 61 A 0.50005 0.50005 0 0 0 29.474609 62 C 36.900458 62.372883 42.032779 63.572942 45.339844 64.691406 A 0.50005 0.50005 0 1 0 45.660156 63.744141 C 42.261221 62.594605 37.035542 61.377117 29.525391 61 A 0.50005 0.50005 0 0 0 29.474609 61 z M 71.474609 61 C 63.166028 61.41734 57.65674 62.860596 54.324219 64.105469 A 0.50062513 0.50062513 0 1 0 54.675781 65.042969 C 57.90726 63.835841 63.309972 62.41266 71.525391 62 A 0.50064429 0.50064429 0 1 0 71.474609 61 z M 29.474609 66 A 0.50005 0.50005 0 0 0 29.474609 67 C 33.411946 67.197861 36.685745 67.630752 39.404297 68.158203 A 0.50044711 0.50044711 0 1 0 39.595703 67.175781 C 36.830255 66.639232 33.508054 66.200139 29.525391 66 A 0.50005 0.50005 0 0 0 29.474609 66 z M 71.474609 66 C 63.166028 66.41734 57.65674 67.860596 54.324219 69.105469 A 0.50062513 0.50062513 0 1 0 54.675781 70.042969 C 57.90726 68.835841 63.309972 67.41266 71.525391 67 A 0.50064429 0.50064429 0 1 0 71.474609 66 z M 43.488281 68.105469 A 0.50005 0.50005 0 0 0 43.365234 69.087891 C 44.080166 69.289462 44.752152 69.492571 45.339844 69.691406 A 0.50005 0.50005 0 1 0 45.660156 68.744141 C 45.047848 68.536976 44.359834 68.329429 43.634766 68.125 A 0.50005 0.50005 0 0 0 43.488281 68.105469 z M 29.474609 71 A 0.50005 0.50005 0 0 0 29.474609 72 C 36.900458 72.372883 42.032779 73.572942 45.339844 74.691406 A 0.50005 0.50005 0 1 0 45.660156 73.744141 C 42.261221 72.594605 37.035542 71.377117 29.525391 71 A 0.50005 0.50005 0 0 0 29.474609 71 z M 71.474609 71 C 63.166028 71.41734 57.65674 72.860596 54.324219 74.105469 A 0.50062513 0.50062513 0 1 0 54.675781 75.042969 C 57.90726 73.835841 63.309972 72.41266 71.525391 72 A 0.50064429 0.50064429 0 1 0 71.474609 71 z M 50.492188 72.992188 A 0.50005 0.50005 0 0 0 50 73.5 L 50 75.5 A 0.50005 0.50005 0 1 0 51 75.5 L 51 73.5 A 0.50005 0.50005 0 0 0 50.492188 72.992188 z M 50.492188 76.992188 A 0.50005 0.50005 0 0 0 50 77.5 L 50 78.5 A 0.50005 0.50005 0 1 0 51 78.5 L 51 77.5 A 0.50005 0.50005 0 0 0 50.492188 76.992188 z M 24.728516 77.015625 C 34.038032 77.038965 40.445221 78.255713 44.480469 79.478516 C 46.328128 80.038412 47.540934 80.564425 48.464844 81 L 46.591797 81 A 0.50005 0.50005 0 0 0 46.492188 80.992188 A 0.50005 0.50005 0 0 0 46.417969 81 L 21.541016 81 L 24.728516 77.015625 z M 47.060547 82 L 50.5 82 L 52.939453 82 C 52.664074 83.116902 51.485291 84 50 84 C 48.514709 84 47.335926 83.116902 47.060547 82 z"/></svg>