<svg xmlns="http://www.w3.org/2000/svg"  viewBox="0 0 64 64" width="64px" height="64px"><path d="M43.316 44.729a1 1 0 001.413-.045l15-16a1 1 0 10-1.458-1.368l-15 16A1 1 0 0043.316 44.729zM19.271 44.684a1 1 0 101.458-1.368l-15-16a1 1 0 10-1.458 1.368zM55.293 39.293l-5 5a1 1 0 101.414 1.414l5-5a1 1 0 00-1.414-1.414zM7.293 39.293a1 1 0 000 1.414l5 5a1 1 0 001.414-1.414l-5-5A1 1 0 007.293 39.293zM10.606 16.919L19 20.516V34a1 1 0 00.684.948A38.991 38.991 0 0032 36.935a38.987 38.987 0 0012.316-1.987A1 1 0 0045 34V23.857a1 1 0 00-2 0v9.414a37.185 37.185 0 01-22 0v-11.9l10.606 4.545a1 1 0 00.788 0L52 17.516v5.668a3 3 0 102 0V16a1 1 0 00-.606-.919l-21-9a1.007 1.007 0 00-.788 0L23.1 9.727a1 1 0 10.788 1.837L32 8.088 50.461 16 32 23.912 13.539 16l6.855-2.938a1 1 0 10-.788-1.838l-9 3.857a1 1 0 000 1.838zM53 27a1 1 0 111-1A1 1 0 0153 27zM31 40v2a1 1 0 002 0V40a1 1 0 00-2 0zM38.293 39.293l-2 2a1 1 0 101.414 1.414l2-2a1 1 0 00-1.414-1.414zM24.293 39.293a1 1 0 000 1.414l2 2a1 1 0 001.414-1.414l-2-2A1 1 0 0024.293 39.293zM61.2 56.021L33 50.186a3 3 0 013.776-2.864l18.741 5.046a.962.962 0 00.26.034 1 1 0 00.259-1.965L37.3 45.391a4.961 4.961 0 00-4.342.86 5.027 5.027 0 00-.958.976 5.027 5.027 0 00-.958-.976 4.966 4.966 0 00-4.342-.86L7.96 50.437A4 4 0 005 54.3v1.266l-2.2.456A1 1 0 002 57v4A1 1 0 003.1 62L16.17 60.644a1 1 0 00-.206-1.991L4 59.892V57.814l27-5.586V56a1 1 0 002 0V52.228l27 5.586v2.078L36.1 57.419a1.031 1.031 0 00-.773.253 1 1 0 00-.33.742V59a1 1 0 01-1 1H30a1 1 0 01-1-1v-.586a1 1 0 00-.33-.742 1.019 1.019 0 00-.773-.253l-7.953.822a1 1 0 00.206 1.99l6.9-.712A3 3 0 0030 62h4a3 3 0 002.955-2.481L60.9 62c.035 0 .069.005.1.005a1 1 0 001-1V57A1 1 0 0061.2 56.021zM7 54.3a2 2 0 011.48-1.931l18.74-5.046A3 3 0 0131 50.186L7 55.151z"/></svg>